<svg xmlns="http://www.w3.org/2000/svg" xmlns:xlink="http://www.w3.org/1999/xlink" width="765pt" height="404pt" viewBox="0.00 0.00 765.00 404.00">
<g id="graph0" class="graph" transform="scale(1 1) rotate(0) translate(4 400)">
<title>CNC_Pipeline</title>
<polygon fill="white" stroke="none" points="-4,4 -4,-400 761.11,-400 761.11,4 -4,4"/>
<!-- simulator -->
<g id="node1" class="node">
<title>simulator</title>
<path fill="#e1f5ee" stroke="#0f6e56" d="M247.28,-388.8C247.28,-388.8 12,-388.8 12,-388.8 6,-388.8 0,-382.8 0,-376.8 0,-376.8 0,-350.4 0,-350.4 0,-344.4 6,-338.4 12,-338.4 12,-338.4 247.28,-338.4 247.28,-338.4 253.28,-338.4 259.28,-344.4 259.28,-350.4 259.28,-350.4 259.28,-376.8 259.28,-376.8 259.28,-382.8 253.28,-388.8 247.28,-388.8"/>
<text xml:space="preserve" text-anchor="middle" x="129.64" y="-367.2" font-family="Arial" font-size="12.00" fill="#085041">CNC Machines / Simulated Controllers</text>
<text xml:space="preserve" text-anchor="middle" x="129.64" y="-352.8" font-family="Arial" font-size="12.00" fill="#085041">simulator/cnc_simulator.py · config.yaml</text>
</g>
<!-- ingest -->
<g id="node2" class="node">
<title>ingest</title>
<path fill="#e6f1fb" stroke="#185fa5" d="M199.27,-288C199.27,-288 60.01,-288 60.01,-288 54.01,-288 48.01,-282 48.01,-276 48.01,-276 48.01,-249.6 48.01,-249.6 48.01,-243.6 54.01,-237.6 60.01,-237.6 60.01,-237.6 199.27,-237.6 199.27,-237.6 205.27,-237.6 211.27,-243.6 211.27,-249.6 211.27,-249.6 211.27,-276 211.27,-276 211.27,-282 205.27,-288 199.27,-288"/>
<text xml:space="preserve" text-anchor="middle" x="129.64" y="-266.4" font-family="Arial" font-size="12.00" fill="#0c447c">Data Acquisition Layer</text>
<text xml:space="preserve" text-anchor="middle" x="129.64" y="-252" font-family="Arial" font-size="12.00" fill="#0c447c">POST /api/ingest</text>
</g>
<!-- simulator&#45;&gt;ingest -->
<g id="edge1" class="edge">
<title>simulator-&gt;ingest</title>
<path fill="none" stroke="black" d="M129.64,-337.92C129.64,-326.28 129.64,-312.18 129.64,-299.41"/>
<polygon fill="black" stroke="black" points="133.14,-299.68 129.64,-289.68 126.14,-299.68 133.14,-299.68"/>
</g>
<!-- pipeline -->
<g id="node3" class="node">
<title>pipeline</title>
<path fill="#eeedfe" stroke="#534ab7" d="M238.95,-194.4C238.95,-194.4 20.32,-194.4 20.32,-194.4 14.32,-194.4 8.32,-188.4 8.32,-182.4 8.32,-182.4 8.32,-112.8 8.32,-112.8 8.32,-106.8 14.32,-100.8 20.32,-100.8 20.32,-100.8 238.95,-100.8 238.95,-100.8 244.95,-100.8 250.95,-106.8 250.95,-112.8 250.95,-112.8 250.95,-182.4 250.95,-182.4 250.95,-188.4 244.95,-194.4 238.95,-194.4"/>
<text xml:space="preserve" text-anchor="middle" x="129.64" y="-172.8" font-family="Arial" font-size="12.00" fill="#3c3489">Data Processing Pipeline</text>
<text xml:space="preserve" text-anchor="middle" x="129.64" y="-158.4" font-family="Arial" font-size="12.00" fill="#3c3489">services/data_cleaning.py</text>
<text xml:space="preserve" text-anchor="middle" x="129.64" y="-144" font-family="Arial" font-size="12.00" fill="#3c3489">services/downtime_state_machine.py</text>
<text xml:space="preserve" text-anchor="middle" x="129.64" y="-129.6" font-family="Arial" font-size="12.00" fill="#3c3489">services/oee_calculator.py</text>
<text xml:space="preserve" text-anchor="middle" x="129.64" y="-115.2" font-family="Arial" font-size="12.00" fill="#3c3489">services/anomaly_detection.py</text>
</g>
<!-- ingest&#45;&gt;pipeline -->
<g id="edge2" class="edge">
<title>ingest-&gt;pipeline</title>
<path fill="none" stroke="black" d="M129.64,-237.24C129.64,-227.97 129.64,-217 129.64,-205.98"/>
<polygon fill="black" stroke="black" points="133.14,-206.07 129.64,-196.07 126.14,-206.07 133.14,-206.07"/>
</g>
<!-- database -->
<g id="node4" class="node">
<title>database</title>
<path fill="#faeeda" stroke="#854f0b" d="M612.01,-64.8C612.01,-64.8 195.27,-64.8 195.27,-64.8 189.27,-64.8 183.27,-58.8 183.27,-52.8 183.27,-52.8 183.27,-12 183.27,-12 183.27,-6 189.27,0 195.27,0 195.27,0 612.01,0 612.01,0 618.01,0 624.01,-6 624.01,-12 624.01,-12 624.01,-52.8 624.01,-52.8 624.01,-58.8 618.01,-64.8 612.01,-64.8"/>
<text xml:space="preserve" text-anchor="middle" x="403.64" y="-43.2" font-family="Arial" font-size="12.00" fill="#633806">Database Layer</text>
<text xml:space="preserve" text-anchor="middle" x="403.64" y="-28.8" font-family="Arial" font-size="12.00" fill="#633806">db/connection.py · db/models.py · schema.sql</text>
<text xml:space="preserve" text-anchor="middle" x="403.64" y="-14.4" font-family="Arial" font-size="12.00" fill="#633806">PostgreSQL — machine_data · anomaly_flags · downtime_events · users</text>
</g>
<!-- pipeline&#45;&gt;database -->
<g id="edge3" class="edge">
<title>pipeline-&gt;database</title>
<path fill="none" stroke="black" d="M241.48,-100.39C266.36,-90.12 292.38,-79.36 316.12,-69.56"/>
<polygon fill="black" stroke="black" points="317.19,-72.9 325.09,-65.85 314.52,-66.43 317.19,-72.9"/>
</g>
<!-- jwt -->
<g id="node5" class="node">
<title>jwt</title>
<path fill="#f1efe8" stroke="#5f5e5a" d="M615.93,-295.2C615.93,-295.2 465.34,-295.2 465.34,-295.2 459.34,-295.2 453.34,-289.2 453.34,-283.2 453.34,-283.2 453.34,-242.4 453.34,-242.4 453.34,-236.4 459.34,-230.4 465.34,-230.4 465.34,-230.4 615.93,-230.4 615.93,-230.4 621.93,-230.4 627.93,-236.4 627.93,-242.4 627.93,-242.4 627.93,-283.2 627.93,-283.2 627.93,-289.2 621.93,-295.2 615.93,-295.2"/>
<text xml:space="preserve" text-anchor="middle" x="540.64" y="-273.6" font-family="Arial" font-size="12.00" fill="#444441">JWT Auth Middleware</text>
<text xml:space="preserve" text-anchor="middle" x="540.64" y="-259.2" font-family="Arial" font-size="12.00" fill="#444441">services/auth_service.py</text>
<text xml:space="preserve" text-anchor="middle" x="540.64" y="-244.8" font-family="Arial" font-size="12.00" fill="#444441">services/jwt_guard.py</text>
</g>
<!-- api -->
<g id="node6" class="node">
<title>api</title>
<path fill="#faece7" stroke="#993c1d" d="M526.29,-180C526.29,-180 280.98,-180 280.98,-180 274.98,-180 268.98,-174 268.98,-168 268.98,-168 268.98,-127.2 268.98,-127.2 268.98,-121.2 274.98,-115.2 280.98,-115.2 280.98,-115.2 526.29,-115.2 526.29,-115.2 532.29,-115.2 538.29,-121.2 538.29,-127.2 538.29,-127.2 538.29,-168 538.29,-168 538.29,-174 532.29,-180 526.29,-180"/>
<text xml:space="preserve" text-anchor="middle" x="403.64" y="-158.4" font-family="Arial" font-size="12.00" fill="#712b13">Analytics API Routes</text>
<text xml:space="preserve" text-anchor="middle" x="403.64" y="-144" font-family="Arial" font-size="12.00" fill="#712b13">api/metrics · api/oee · api/alarms</text>
<text xml:space="preserve" text-anchor="middle" x="403.64" y="-129.6" font-family="Arial" font-size="12.00" fill="#712b13">api/downtime · api/history · api/anomalies</text>
</g>
<!-- jwt&#45;&gt;api -->
<g id="edge5" class="edge">
<title>jwt-&gt;api</title>
<path fill="none" stroke="black" d="M502.11,-229.97C486.07,-216.71 467.3,-201.2 450.47,-187.3"/>
<polygon fill="black" stroke="black" points="452.98,-184.83 443.04,-181.16 448.52,-190.23 452.98,-184.83"/>
</g>
<!-- admin -->
<g id="node7" class="node">
<title>admin</title>
<path fill="#f1efe8" stroke="#5f5e5a" d="M745.11,-180C745.11,-180 568.17,-180 568.17,-180 562.17,-180 556.17,-174 556.17,-168 556.17,-168 556.17,-127.2 556.17,-127.2 556.17,-121.2 562.17,-115.2 568.17,-115.2 568.17,-115.2 745.11,-115.2 745.11,-115.2 751.11,-115.2 757.11,-121.2 757.11,-127.2 757.11,-127.2 757.11,-168 757.11,-168 757.11,-174 751.11,-180 745.11,-180"/>
<text xml:space="preserve" text-anchor="middle" x="656.64" y="-158.4" font-family="Arial" font-size="12.00" fill="#444441">Admin API Routes</text>
<text xml:space="preserve" text-anchor="middle" x="656.64" y="-144" font-family="Arial" font-size="12.00" fill="#444441">api/admin</text>
<text xml:space="preserve" text-anchor="middle" x="656.64" y="-129.6" font-family="Arial" font-size="12.00" fill="#444441">Machine + User Management</text>
</g>
<!-- jwt&#45;&gt;admin -->
<g id="edge6" class="edge">
<title>jwt-&gt;admin</title>
<path fill="none" stroke="black" d="M573.26,-229.97C586.59,-216.96 602.15,-201.77 616.2,-188.07"/>
<polygon fill="black" stroke="black" points="618.47,-190.74 623.18,-181.25 613.58,-185.73 618.47,-190.74"/>
</g>
<!-- api&#45;&gt;database -->
<g id="edge7" class="edge">
<title>api-&gt;database</title>
<path fill="none" stroke="black" d="M403.64,-114.77C403.64,-102.85 403.64,-89.11 403.64,-76.35"/>
<polygon fill="black" stroke="black" points="407.14,-76.51 403.64,-66.51 400.14,-76.51 407.14,-76.51"/>
</g>
<!-- admin&#45;&gt;database -->
<g id="edge8" class="edge">
<title>admin-&gt;database</title>
<path fill="none" stroke="black" d="M585.49,-114.77C554.23,-100.78 517.36,-84.28 485.02,-69.81"/>
<polygon fill="black" stroke="black" points="486.63,-66.7 476.07,-65.81 483.77,-73.09 486.63,-66.7"/>
</g>
<!-- dashboard -->
<g id="node8" class="node">
<title>dashboard</title>
<path fill="#e6f1fb" stroke="#185fa5" d="M676.98,-396C676.98,-396 404.3,-396 404.3,-396 398.3,-396 392.3,-390 392.3,-384 392.3,-384 392.3,-343.2 392.3,-343.2 392.3,-337.2 398.3,-331.2 404.3,-331.2 404.3,-331.2 676.98,-331.2 676.98,-331.2 682.98,-331.2 688.98,-337.2 688.98,-343.2 688.98,-343.2 688.98,-384 688.98,-384 688.98,-390 682.98,-396 676.98,-396"/>
<text xml:space="preserve" text-anchor="middle" x="540.64" y="-374.4" font-family="Arial" font-size="12.00" fill="#0c447c">React Dashboard (Vite SPA)</text>
<text xml:space="preserve" text-anchor="middle" x="540.64" y="-360" font-family="Arial" font-size="12.00" fill="#0c447c">MachineDetails · AdminPanel · Login · Signup</text>
<text xml:space="preserve" text-anchor="middle" x="540.64" y="-345.6" font-family="Arial" font-size="12.00" fill="#0c447c">src/api.js → REST calls to backend</text>
</g>
<!-- dashboard&#45;&gt;jwt -->
<g id="edge4" class="edge">
<title>dashboard-&gt;jwt</title>
<path fill="none" stroke="black" d="M540.64,-330.8C540.64,-323.22 540.64,-315 540.64,-307"/>
<polygon fill="black" stroke="black" points="544.14,-307.06 540.64,-297.06 537.14,-307.06 544.14,-307.06"/>
</g>
</g>
</svg>